<svg width="499" height="375" viewBox="0 0 499 375" fill="none" xmlns="http://www.w3.org/2000/svg">
<g clip-path="url(#clip0_2_2)">
<path d="M64.4029 160.159C62.8813 169.722 62.091 179.529 62.091 189.52C62.091 291.918 145.101 374.927 247.498 374.927C283.096 374.927 316.351 364.895 344.59 347.503C298.308 328.355 245.92 299.991 193.196 264.428C142.914 230.513 98.8179 194.428 64.4029 160.159Z" fill="#3FFDFF"/>
<path d="M359.448 337.327C312.193 318.722 257.233 289.528 201.584 251.992C148.424 216.136 102.557 178.009 68.0918 142.553C70.4089 133.677 73.3671 125.061 76.914 116.757C108.644 152.34 156.263 193.633 214.467 232.892C275.464 274.035 334.176 303.562 380.054 319.153C373.648 325.703 366.76 331.78 359.448 337.327Z" fill="#3FFDFF"/>
<path d="M390.974 306.961C417.179 274.984 432.905 234.089 432.905 189.52C432.905 87.1229 349.895 4.11334 247.498 4.11334C176.728 4.11334 115.219 43.7638 83.9738 102.061C114.533 137.458 162.746 179.912 222.855 220.457C285.82 262.927 345.838 292.509 390.872 306.928C390.906 306.939 390.94 306.95 390.974 306.961Z" fill="#3FFDFF"/>
<path fill-rule="evenodd" clip-rule="evenodd" d="M386.298 321.214C435.624 337.007 456.848 332.489 462.427 324.218C468.006 315.948 464.244 294.576 431.123 254.759C399.744 217.036 348.663 171.559 284.864 128.526C221.064 85.4922 159.763 55.1665 113.033 40.204C63.7072 24.4105 42.4827 28.9284 36.9038 37.1994C31.325 45.4704 35.0869 66.8419 68.208 106.659C99.5865 144.382 150.668 189.859 214.467 232.892C278.267 275.926 339.568 306.251 386.298 321.214ZM201.584 251.993C336.692 343.124 467.744 385.085 494.299 345.716C520.854 306.348 432.854 200.557 297.747 109.425C162.639 18.2943 31.5865 -23.6673 5.03186 15.7015C-21.5227 55.0703 66.4767 160.861 201.584 251.993Z" fill="#3FFDFF"/>
</g>
<defs>
<clipPath id="clip0_2_2">
<rect width="499" height="375" fill="white"/>
</clipPath>
</defs>
</svg>
